<?xml version="1.0" encoding="UTF-8" standalone="no"?>
<svg width="13px" height="13px" viewBox="0 0 13 13" version="1.1" xmlns="http://www.w3.org/2000/svg" xmlns:xlink="http://www.w3.org/1999/xlink">
    <!-- Generator: sketchtool 3.8.3 (29802) - http://www.bohemiancoding.com/sketch -->
    <title>4EC51C5B-FED5-44C5-92EB-516A9DA4885E</title>
    <desc>Created with sketchtool.</desc>
    <defs></defs>
    <g id="Welcome" stroke="none" stroke-width="1" fill="none" fill-rule="evenodd">
        <g id="Desktop-NoFilter" transform="translate(-536.000000, -389.000000)" fill="#EEC02B">
            <g id="card" transform="translate(296.000000, 252.000000)">
                <g id="Group-3" transform="translate(118.000000, 33.000000)">
                    <g id="search" transform="translate(114.000000, 96.000000)">
                        <path d="M17.29251,12.8243668 L16.7023442,12.8243668 L16.4971984,13.0280144 C17.2218982,13.8730776 17.6626644,14.9686124 17.6626644,16.168944 C17.6626644,18.8371734 15.4997141,21 12.8313322,21 C10.1629503,21 8,18.8371734 8,16.168944 C8,13.5007147 10.1629503,11.3378881 12.8313322,11.3378881 C14.0317324,11.3378881 15.1265866,11.7778858 15.9716981,12.5018009 L16.1768439,12.2981533 L16.1768439,11.7095077 L19.8917667,8 L21,9.10816992 L17.29251,12.8243668 L17.29251,12.8243668 Z M12.8313322,12.8243668 C10.9835334,12.8243668 9.48656375,14.3212509 9.48656375,16.168944 C9.48656375,18.0158939 10.9835334,19.5135212 12.8313322,19.5135212 C14.6783877,19.5135212 16.1761006,18.0158939 16.1761006,16.168944 C16.1761006,14.3212509 14.6783877,12.8243668 12.8313322,12.8243668 L12.8313322,12.8243668 Z" id="icon-detail-search" transform="translate(14.500000, 14.500000) scale(1, -1) translate(-14.500000, -14.500000) "></path>
                    </g>
                </g>
            </g>
        </g>
    </g>
</svg>